<?xml version="1.0" encoding="UTF-8"?>
<svg id="Capa_2" data-name="Capa 2" xmlns="http://www.w3.org/2000/svg" viewBox="0 0 177.73 40.07">
  <defs>
    <style>
      .cls-1 {
        fill: #009f99;
      }

      .cls-2 {
        fill: #7f2081;
      }
    </style>
  </defs>
  <g id="Capa_1-2" data-name="Capa 1">
    <g>
      <path class="cls-1" d="M19.95,20.95H0v18.95h19.95c5.23,0,9.47-4.24,9.47-9.47h0c0-5.23-4.24-9.47-9.47-9.47Z"/>
      <path class="cls-1" d="M19.79,0H0v15.24h19.79c4.21,0,7.62-3.41,7.62-7.62h0c0-4.21-3.41-7.62-7.62-7.62Z"/>
      <g>
        <path class="cls-2" d="M34.85,20.5h9.24c3.55,0,5.46,2.05,5.46,4.93,0,2-.97,3.52-2.64,4.28v.06c2.2.65,3.52,2.44,3.52,4.78,0,2.96-1.94,5.13-5.58,5.13h-10.01v-19.19ZM43.77,28.54c1.82,0,2.82-1.11,2.82-2.64s-.82-2.64-2.88-2.64h-5.87v5.28h5.93ZM44.36,36.93c2.11,0,2.99-1.23,2.99-2.76,0-1.67-1.09-2.88-2.93-2.88h-6.57v5.63h6.51Z"/>
        <path class="cls-2" d="M52.49,20.94c0-1.11.82-1.94,1.94-1.94s1.94.82,1.94,1.94-.82,1.97-1.94,1.97-1.94-.85-1.94-1.97ZM53.04,25.19h2.79v14.5h-2.79v-14.5Z"/>
        <path class="cls-2" d="M58.53,32.44c0-4.4,3.23-7.63,7.81-7.63s7.81,3.23,7.81,7.63-3.23,7.63-7.81,7.63-7.81-3.23-7.81-7.63ZM71.32,32.44c0-2.93-2-5.05-4.99-5.05s-4.99,2.11-4.99,5.05,2,5.05,4.99,5.05,4.99-2.11,4.99-5.05Z"/>
        <path class="cls-2" d="M76.31,31.3c0-4.43,2.58-6.48,5.99-6.48,2.23,0,4.11,1,5.11,2.88,1-1.88,2.85-2.88,5.11-2.88,3.4,0,5.99,2.05,5.99,6.48v8.39h-2.79v-8.39c0-2.7-1.44-3.9-3.46-3.9s-3.43,1.26-3.43,3.9v8.39h-2.79v-8.39c0-2.64-1.5-3.9-3.46-3.9s-3.46,1.2-3.46,3.9v8.39h-2.79v-8.39Z"/>
        <path class="cls-2" d="M100.69,32.44c0-4.4,3.23-7.63,7.81-7.63s7.75,3.23,7.75,7.63v1.03h-12.62c.41,2.58,2.35,4.02,4.87,4.02,1.88,0,3.2-.59,4.05-1.85h3.08c-1.11,2.7-3.76,4.43-7.13,4.43-4.58,0-7.81-3.23-7.81-7.63ZM113.3,30.97c-.56-2.32-2.46-3.58-4.81-3.58s-4.23,1.29-4.78,3.58h9.6Z"/>
        <path class="cls-2" d="M117.82,32.35c0-4.81,3.58-7.54,7.36-7.54,2.35,0,4.34,1.06,5.4,2.93v-8.89h2.79v13.47c0,4.72-3.23,7.75-7.72,7.75s-7.83-3.17-7.83-7.72ZM130.58,32.44c0-2.93-2-5.05-4.96-5.05s-4.99,2.11-4.99,5.05,2,5.05,4.99,5.05,4.96-2.11,4.96-5.05Z"/>
        <path class="cls-2" d="M136.13,20.94c0-1.11.82-1.94,1.94-1.94s1.94.82,1.94,1.94-.82,1.97-1.94,1.97-1.94-.85-1.94-1.97ZM136.68,25.19h2.79v14.5h-2.79v-14.5Z"/>
        <path class="cls-2" d="M142.14,32.44c0-4.4,3.23-7.63,7.81-7.63,3.84,0,6.72,2.29,7.48,5.63h-2.82c-.7-1.85-2.41-3.05-4.67-3.05-2.99,0-4.99,2.11-4.99,5.05s2,5.05,4.99,5.05c2.26,0,3.96-1.2,4.67-3.05h2.82c-.76,3.35-3.64,5.63-7.48,5.63-4.58,0-7.81-3.23-7.81-7.63Z"/>
        <path class="cls-2" d="M159.62,20.94c0-1.11.82-1.94,1.94-1.94s1.94.82,1.94,1.94-.82,1.97-1.94,1.97-1.94-.85-1.94-1.97ZM160.18,25.19h2.79v14.5h-2.79v-14.5Z"/>
        <path class="cls-2" d="M165.7,35.49h2.82c.06,1.2,1.17,2.05,3.2,2.05s3.2-.91,3.2-2.05c0-1.38-1.53-1.56-3.34-1.79-2.52-.32-5.58-.79-5.58-4.11,0-2.85,2.23-4.78,5.69-4.78s5.6,1.97,5.66,4.46h-2.76c-.09-1.12-1.11-1.94-2.88-1.94-1.85,0-2.9.88-2.9,2.02,0,1.38,1.53,1.53,3.32,1.76,2.52.32,5.6.79,5.6,4.11,0,2.93-2.38,4.84-6.02,4.84s-5.93-1.94-6.02-4.58Z"/>
      </g>
      <g>
        <path class="cls-1" d="M40.46,9.67c-.14-.25-.34-.45-.59-.58s-.56-.2-.91-.2c-.6,0-1.09.2-1.45.59s-.55.93-.55,1.59c0,.71.19,1.26.57,1.65.38.4.91.59,1.58.59.46,0,.85-.12,1.16-.35.32-.23.55-.57.69-1h-2.37v-1.38h4.06v1.74c-.14.47-.37.9-.7,1.3-.33.4-.75.72-1.26.97-.51.25-1.08.37-1.72.37-.76,0-1.43-.17-2.02-.5s-1.05-.79-1.39-1.38-.5-1.26-.5-2.02.17-1.43.5-2.02c.33-.59.79-1.05,1.38-1.39.59-.33,1.26-.5,2.02-.5.92,0,1.69.22,2.32.67s1.05,1.06,1.25,1.84h-2.06Z"/>
        <path class="cls-1" d="M48.69,14.91l-1.59-2.89h-.45v2.89h-1.87v-7.66h3.13c.6,0,1.12.11,1.54.32.43.21.74.5.96.87.21.37.32.78.32,1.23,0,.51-.14.96-.43,1.36-.29.4-.71.68-1.27.85l1.77,3.03h-2.11ZM46.65,10.69h1.16c.34,0,.6-.08.77-.25s.26-.4.26-.71-.09-.52-.26-.69c-.17-.17-.43-.25-.77-.25h-1.16v1.9Z"/>
        <path class="cls-1" d="M54.82,7.25v4.58c0,.46.11.81.34,1.06.23.25.56.37.99.37s.77-.12,1-.37c.23-.25.35-.6.35-1.06v-4.58h1.87v4.57c0,.68-.15,1.26-.44,1.73-.29.47-.68.83-1.17,1.07-.49.24-1.04.36-1.64.36s-1.14-.12-1.62-.35c-.48-.24-.85-.59-1.13-1.07-.28-.48-.42-1.06-.42-1.74v-4.57h1.87Z"/>
        <path class="cls-1" d="M67.31,10.93c-.2.37-.52.66-.94.89s-.95.34-1.57.34h-1.16v2.75h-1.87v-7.66h3.02c.61,0,1.13.11,1.55.32.42.21.74.5.95.87s.32.8.32,1.28c0,.44-.1.85-.31,1.22ZM65.45,10.42c.17-.17.26-.4.26-.71s-.09-.54-.26-.71c-.17-.17-.44-.25-.8-.25h-1.01v1.92h1.01c.36,0,.62-.08.8-.25Z"/>
        <path class="cls-1" d="M71.32,14.48c-.6-.33-1.08-.8-1.43-1.4-.35-.6-.53-1.27-.53-2.02s.18-1.42.53-2.02c.35-.6.83-1.06,1.43-1.4s1.26-.5,1.98-.5,1.38.17,1.98.5,1.07.8,1.42,1.4c.35.6.52,1.27.52,2.02s-.17,1.42-.52,2.02-.82,1.07-1.42,1.4c-.6.33-1.25.5-1.98.5s-1.38-.17-1.98-.5ZM74.77,12.67c.37-.41.55-.95.55-1.62s-.18-1.22-.55-1.62c-.37-.4-.86-.61-1.47-.61s-1.11.2-1.48.6c-.37.4-.55.94-.55,1.63s.18,1.22.55,1.62c.37.4.86.61,1.48.61s1.1-.2,1.47-.61Z"/>
      </g>
    </g>
  </g>
</svg>